<svg width="177" height="187" viewBox="0 0 177 187" fill="none" xmlns="http://www.w3.org/2000/svg">
<path fill-rule="evenodd" clip-rule="evenodd" d="M67.3703 -33.0236C91.2449 -38.327 118.167 -37.3464 138.304 -23.4675C158.618 -9.46584 166.753 15.9702 173.062 39.8225C179.068 62.5283 177.452 85.455 173.225 108.558C168.339 135.257 171.02 171.252 146.778 183.459C121.664 196.106 95.461 163.124 67.3703 161.861C41.4891 160.697 14.8638 190.421 -7.01411 176.545C-28.5534 162.884 -19.1603 128.903 -24.0599 103.871C-28.2065 82.6865 -41.5064 61.4338 -33.4669 41.3999C-25.5343 21.6323 -0.9862 16.3156 16.1514 3.66705C33.4729 -9.11717 46.3542 -28.3551 67.3703 -33.0236Z" fill="#E17757"/>
</svg>
