<svg width="135" height="237" viewBox="0 0 135 237" fill="none" xmlns="http://www.w3.org/2000/svg">
<path fill-rule="evenodd" clip-rule="evenodd" d="M6.22866 5.8209C29.9042 6.46998 57.1845 -3.70097 75.3061 11.549C93.3992 26.7751 83.4064 56.7801 92.6483 78.5465C103.374 103.807 142.59 122.095 133.191 147.878C123.664 174.014 79.814 160.593 56.9592 176.451C35.0037 191.685 32.4927 231.04 6.22866 235.972C-19.4791 240.799 -41.0761 215.997 -60.5306 198.512C-78.1885 182.642 -95.5358 164.384 -99.4753 140.971C-103.18 118.952 -86.2388 100.009 -80.7474 78.3657C-74.6738 54.4285 -84.6214 23.5027 -65.6565 7.68446C-46.7874 -8.05386 -18.3332 5.14753 6.22866 5.8209Z" fill="#F6D5CC"/>
</svg>
