<svg width="172" height="111" viewBox="0 0 172 111" fill="none" xmlns="http://www.w3.org/2000/svg">
<path fill-rule="evenodd" clip-rule="evenodd" d="M128.778 3.68961C153.773 -1.55448 181.165 -2.65754 203.239 10.188C226.333 23.6268 244.415 47.2958 248.96 73.626C253.276 98.6365 239.225 122.492 226.402 144.396C215.88 162.369 199.742 174.923 182.673 186.856C165.941 198.555 149.194 212.729 128.778 212.65C108.392 212.572 93.6953 194.978 75.1821 186.444C50.2187 174.936 10.6433 179.955 1.56462 154.01C-7.448 128.253 24.7912 106.748 39.183 83.5643C49.6193 66.7524 59.2437 50.4673 74.014 37.2995C90.4024 22.689 107.29 8.19775 128.778 3.68961Z" fill="#F5DBBA"/>
</svg>
