<svg width="179" height="181" viewBox="0 0 179 181" fill="none" xmlns="http://www.w3.org/2000/svg">
<path fill-rule="evenodd" clip-rule="evenodd" d="M140.26 -46.4142C162.133 -43.6662 176.145 -23.6687 194.193 -11.0118C212.667 1.9434 235.503 9.15051 247.097 28.5073C260.438 50.7783 270.297 78.1762 262.438 102.919C254.566 127.703 230.664 144.36 206.927 154.979C186.117 164.289 162.776 154.01 140.26 157.578C111.01 162.214 84.2126 188.595 56.2425 178.861C27.252 168.773 1.40484 139.447 0.0378878 108.782C-1.33101 78.0728 34.755 60.6399 49.7772 33.8211C60.6386 14.4302 58.8625 -11.1793 75.4919 -25.9252C92.8592 -41.3256 117.229 -49.3078 140.26 -46.4142Z" fill="#EAD2D2"/>
</svg>
