<svg width="223" height="207" viewBox="0 0 223 207" fill="none" xmlns="http://www.w3.org/2000/svg">
<path fill-rule="evenodd" clip-rule="evenodd" d="M110.563 1.17799C132.614 -4.24991 154.409 10.1578 173.554 22.3848C193.795 35.3114 218.712 49.023 222.616 72.741C226.501 96.3365 199.784 113.08 192.219 135.762C184.756 158.134 198.922 190.927 178.997 203.509C158.675 216.343 134.458 189.845 110.563 187.326C90.5909 185.221 69.8575 199.018 51.855 190.105C32.9232 180.733 23.3954 159.723 15.3304 140.179C6.66006 119.168 -6.93499 94.4079 4.18654 74.5878C15.5037 54.4189 47.6399 61.824 66.6637 48.6958C84.8521 36.1441 89.1122 6.45815 110.563 1.17799Z" fill="#E89C84"/>
</svg>
